<svg id="Layer_1" data-name="Layer 1" xmlns="http://www.w3.org/2000/svg" viewBox="0 0 63.59 20"><defs><style>.cls-1{fill:#fff;}</style></defs><path class="cls-1" d="M11.21,17.07a7.57,7.57,0,0,1-2.58-.45,7,7,0,0,1-4.5-5.21A8.06,8.06,0,0,1,4,10.12,7.38,7.38,0,0,1,6.27,4.91a7.18,7.18,0,0,1,5.26-2.1,7.5,7.5,0,0,1,6.2,4.29c.89,1.9,1,4.44-.82,5.55a3.19,3.19,0,0,1-3.42-.25,5.53,5.53,0,0,1-1.67-2.16l-.4.22c.35,1,.63,2.9-.39,4a2.35,2.35,0,0,1-2.41.62,2.14,2.14,0,0,1-1.35-2.14,3.07,3.07,0,0,1,1.44-2A11.37,11.37,0,0,1,10.14,10a12.52,12.52,0,0,0-2.3-3.2.49.49,0,1,1,.7-.7h0A13.27,13.27,0,0,1,11,9.54l.46-.26a10.4,10.4,0,0,1-.39-2,2.89,2.89,0,0,1,.27-1.69,1.89,1.89,0,0,1,2.58-.71,1.86,1.86,0,0,1,.71.71A2.75,2.75,0,0,1,14,8.68a6.43,6.43,0,0,1-1.27,1,4.62,4.62,0,0,0,1.41,1.89,2.21,2.21,0,0,0,2.32.17c1.36-.83,1-3,.41-4.26a6.51,6.51,0,0,0-5.35-3.71A6.23,6.23,0,0,0,7,5.63a6.39,6.39,0,0,0-2,4.5,8,8,0,0,0,.08,1.1A6,6,0,0,0,9,15.68a6.51,6.51,0,0,0,7.5-2.29.5.5,0,0,1,.8.6A7.51,7.51,0,0,1,11.21,17.07Zm-.68-6.14c-.44.24-.87.5-1.28.78a2.08,2.08,0,0,0-1,1.35A1.12,1.12,0,0,0,9,14.12a1.36,1.36,0,0,0,1.35-.37A3.36,3.36,0,0,0,10.53,10.93ZM13,5.61a.89.89,0,0,0-.76.44,1.86,1.86,0,0,0-.16,1.09,9.47,9.47,0,0,0,.29,1.59A5.16,5.16,0,0,0,13.26,8a1.75,1.75,0,0,0,.49-2A.92.92,0,0,0,13,5.61Z"/><path class="cls-1" d="M11.25,18.92A8.92,8.92,0,1,1,20.17,10,8.92,8.92,0,0,1,11.25,18.92Zm0-16.84A7.92,7.92,0,1,0,19.17,10h0A7.94,7.94,0,0,0,11.25,2.08Z"/><path class="cls-1" d="M21.87,7.33a.6.6,0,0,1,.44-.18.58.58,0,0,1,.43.18.6.6,0,0,1,.18.44V9.42H25.2V7.77a.6.6,0,0,1,.18-.44.58.58,0,0,1,.43-.18.61.61,0,0,1,.62.6h0v4.48a.61.61,0,0,1-.6.62h0a.58.58,0,0,1-.43-.18.6.6,0,0,1-.18-.44V10.55h-2.3v1.68a.6.6,0,0,1-.18.44.58.58,0,0,1-.43.18.61.61,0,0,1-.62-.6h0V7.77A.6.6,0,0,1,21.87,7.33Z"/><path class="cls-1" d="M27.46,12l1.95-4.4a.85.85,0,0,1,.29-.36.75.75,0,0,1,.43-.13h.07a.66.66,0,0,1,.43.13.85.85,0,0,1,.29.36L32.87,12a.54.54,0,0,1,.06.25.58.58,0,0,1-.57.59h0a.6.6,0,0,1-.59-.43l-.38-.88H28.92l-.4.92a.58.58,0,0,1-.22.29.67.67,0,0,1-.34.1.58.58,0,0,1-.41-.17.57.57,0,0,1-.16-.41A.59.59,0,0,1,27.46,12Zm2.69-3.4-.78,1.85h1.55Z"/><path class="cls-1" d="M34.08,7.33a.58.58,0,0,1,.43-.18.59.59,0,0,1,.44.18.6.6,0,0,1,.18.44V9.42H37.4V7.77a.61.61,0,0,1,.6-.62h0a.58.58,0,0,1,.43.18.6.6,0,0,1,.19.44v4.46a.6.6,0,0,1-.19.44.58.58,0,0,1-.43.18.61.61,0,0,1-.62-.6h0v-1.7H35.13v1.68a.6.6,0,0,1-.18.44.59.59,0,0,1-.44.18.58.58,0,0,1-.43-.18.6.6,0,0,1-.18-.44V7.77A.6.6,0,0,1,34.08,7.33Z"/><path class="cls-1" d="M40.53,12.25a2.46,2.46,0,0,1-.64-1.85V7.77a.61.61,0,0,1,.6-.62h0a.58.58,0,0,1,.43.18.6.6,0,0,1,.18.44v2.6a1.5,1.5,0,0,0,.32,1,1.32,1.32,0,0,0,1.78,0,1.45,1.45,0,0,0,.32-1V7.77a.6.6,0,0,1,.18-.44.58.58,0,0,1,.43-.18.59.59,0,0,1,.44.18.6.6,0,0,1,.18.44v2.59a2.58,2.58,0,0,1-.65,1.89,2.47,2.47,0,0,1-1.81.64A2.38,2.38,0,0,1,40.53,12.25Z"/><path class="cls-1" d="M45.68,8.18a.71.71,0,0,1-.15-.44.6.6,0,0,1,.18-.42.66.66,0,0,1,.44-.17.59.59,0,0,1,.34.1,1.2,1.2,0,0,1,.27.28l1.35,2,1.39-2a.7.7,0,0,1,.59-.37.55.55,0,0,1,.44.18.54.54,0,0,1,.16.42.79.79,0,0,1-.16.44l-1.81,2.44v1.61a.6.6,0,0,1-.18.44.58.58,0,0,1-.43.18.61.61,0,0,1-.62-.6h0V10.64Z"/><path class="cls-1" d="M52.47,12.8a2.76,2.76,0,0,1-.68-.3.7.7,0,0,1-.2-.22.43.43,0,0,1-.08-.29.51.51,0,0,1,.17-.4.59.59,0,0,1,.73-.06,2.35,2.35,0,0,0,.43.19,1.84,1.84,0,0,0,.47.06,1,1,0,0,0,.78-.35,1.66,1.66,0,0,0,.35-.93,1.73,1.73,0,0,1-1.13.39,2.1,2.1,0,0,1-1.46-.48,1.68,1.68,0,0,1-.54-1.33h0a1.88,1.88,0,0,1,1-1.7,2.48,2.48,0,0,1,1.11-.26,2.45,2.45,0,0,1,.93.15,2,2,0,0,1,.69.46,2.26,2.26,0,0,1,.49.83,3.7,3.7,0,0,1,.17,1.28h0a4.15,4.15,0,0,1-.28,1.6,2.19,2.19,0,0,1-2.17,1.46A2.93,2.93,0,0,1,52.47,12.8Zm1.74-3.17a.76.76,0,0,0,.26-.6h0a.76.76,0,0,0-.27-.62,1.2,1.2,0,0,0-1.42,0,.81.81,0,0,0-.25.62h0a.8.8,0,0,0,.26.61,1,1,0,0,0,.72.23A1,1,0,0,0,54.21,9.63Z"/><path class="cls-1" d="M57.62,12.76a2.85,2.85,0,0,1-.78-.39.55.55,0,0,1-.25-.47.59.59,0,0,1,.17-.42.56.56,0,0,1,.75-.06,2.49,2.49,0,0,0,.51.27,1.71,1.71,0,0,0,.55.09,1,1,0,0,0,.65-.21.7.7,0,0,0,.26-.57h0a.63.63,0,0,0-.28-.55,1.15,1.15,0,0,0-.72-.21h-.33l-.3.07h-.21a.54.54,0,0,1-.25-.06,2,2,0,0,1-.31-.19.54.54,0,0,1-.23-.5L57,7.73a.6.6,0,0,1,.17-.38.54.54,0,0,1,.38-.15H60a.47.47,0,0,1,.38.16.54.54,0,0,1,0,.76.55.55,0,0,1-.38.16h-2l-.06,1a2.57,2.57,0,0,1,.73-.1,2.14,2.14,0,0,1,1.42.45A1.61,1.61,0,0,1,60.68,11h0a1.85,1.85,0,0,1-.26,1,1.74,1.74,0,0,1-.74.68,2.25,2.25,0,0,1-1.08.24A3.3,3.3,0,0,1,57.62,12.76Z"/></svg>