<svg id="Layer_1" data-name="Layer 1" xmlns="http://www.w3.org/2000/svg" viewBox="0 0 150 30"><defs><style>.cls-1{fill:#fff;}</style></defs><path class="cls-1" d="M16.4,6.07A.78.78,0,0,0,16.1,6h-.28a.76.76,0,0,0-.36.08,1.87,1.87,0,0,0-.29.2,1.27,1.27,0,0,0-.21.25.49.49,0,0,0-.08.21V8.09a11.89,11.89,0,0,1-.11,1.35c0,.44-.09.85-.15,1.24s-.11.75-.16,1.06-.11.58-.16.78a2,2,0,0,1-.14.41,1,1,0,0,1-.58.29,8.82,8.82,0,0,1-1.14.22c-.45.06-.94.12-1.46.16l-1.49.11-1.24.06H6.9a.73.73,0,0,1-.28-.1.26.26,0,0,1-.13-.19A6.12,6.12,0,0,1,6.55,12c.09-.47.19-.94.29-1.42s.2-1,.28-1.43a5.93,5.93,0,0,0,.06-1.33.89.89,0,0,0-.24-.56A1.17,1.17,0,0,0,6.3,7,.76.76,0,0,0,6,7a.72.72,0,0,0-.24.14,1.18,1.18,0,0,0-.17.22.62.62,0,0,0-.07.23c-.06.62-.13,1.27-.2,1.93s-.15,1.32-.23,2-.16,1.32-.24,2-.17,1.26-.26,1.84-.17,1.1-.25,1.64-.18,1-.26,1.35a.69.69,0,0,1-.08.37,1.65,1.65,0,0,0-.11.45l-.09.46a2.67,2.67,0,0,0,0,.4.92.92,0,0,0,.13.36,3.18,3.18,0,0,0,.27.37,2.42,2.42,0,0,0,.33.31.5.5,0,0,0,.29.12.58.58,0,0,0,.5-.25,1.79,1.79,0,0,0,.26-.66,5.63,5.63,0,0,0,.1-.92V17.81a1.85,1.85,0,0,1,.07-.61c.07-.21,0-.43.09-.65a2.8,2.8,0,0,0,.1-.59c0-.18.07-.33.11-.45s.08-.2.12-.22a1.14,1.14,0,0,1,.32-.07l.66-.08L8,15h2.63l1-.07,1-.08h.76a.56.56,0,0,1,.37.11.43.43,0,0,1,.17.33c0,.24,0,.47,0,.71s0,.61-.08,1-.09.69-.14,1.05l-.14,1c0,.29-.07.59-.1.83a2.66,2.66,0,0,0,0,.5.8.8,0,0,0,.11.34.61.61,0,0,0,.21.24A.78.78,0,0,0,14,21a.7.7,0,0,0,.25.05.67.67,0,0,0,.31-.1,1.93,1.93,0,0,0,.36-.28,2.19,2.19,0,0,0,.29-.39.89.89,0,0,0,.12-.45v-2a5.65,5.65,0,0,1,.07-1.09c.07-.36,0-.68.06-1s0-.53.06-.73a2.16,2.16,0,0,1,0-.36A11.68,11.68,0,0,1,15.7,13c.08-.55.16-1.1.26-1.63s.18-1,.28-1.5.18-.92.26-1.33.13-.78.18-1.1a4.41,4.41,0,0,0,.05-.81.64.64,0,0,0-.11-.3A.8.8,0,0,0,16.4,6.07Z"/><path class="cls-1" d="M40.61,17.58q.24-.22.42-.42a2.24,2.24,0,0,0,.27-.34.5.5,0,0,0,.09-.24.45.45,0,0,0-.07-.28.24.24,0,0,0-.22-.12.42.42,0,0,0-.28.14,2.36,2.36,0,0,1-.44.32l-.52.34-.66.42-.69.44c-.23.14-.45.28-.65.39l-.51.29a.69.69,0,0,1-.28.11.11.11,0,0,1-.08,0v-.05a1.86,1.86,0,0,0-.11-.52,3.49,3.49,0,0,0-.22-.53c-.09-.18-.19-.35-.29-.51L36,16.55l-.47-.64a4.27,4.27,0,0,1-.4-.64,2.77,2.77,0,0,1-.22-.63,3.31,3.31,0,0,1-.07-.55l.29-.24c.13-.09.26-.21.41-.33a4.9,4.9,0,0,0,.73-.71,1.21,1.21,0,0,0,.26-.71c0-.62-.27-.93-.8-.93h0a.91.91,0,0,0-.5.19,3.29,3.29,0,0,0-.57.48,4.74,4.74,0,0,0-.51.67,3,3,0,0,0-.33.76,3.78,3.78,0,0,0-.2,1c-.36.35-.74.71-1.15,1.08a15.83,15.83,0,0,1-1.29,1,7.71,7.71,0,0,1-1.27.75,2.81,2.81,0,0,1-1.1.29.66.66,0,0,1-.46-.19,1.67,1.67,0,0,1-.34-.45,3.54,3.54,0,0,1-.23-.53,3.59,3.59,0,0,1-.12-.47,2.63,2.63,0,0,1-.06-.39,3.53,3.53,0,0,1,0-.46V14a3.84,3.84,0,0,1,0-.48,5.45,5.45,0,0,1,.09-.64c0-.23.07-.43.1-.64a2.52,2.52,0,0,0,0-.48.48.48,0,0,0-.08-.31.54.54,0,0,0-.33-.08c-.22,0-.47.33-.75,1l-.43,1c-.15.36-.32.73-.49,1.09a8.46,8.46,0,0,1-.54,1,7.24,7.24,0,0,1-.57.87c-.2.25-.43.52-.69.82a8.33,8.33,0,0,1-.84.84,5,5,0,0,1-.93.65,2,2,0,0,1-1,.27.43.43,0,0,1-.29-.1.79.79,0,0,1-.19-.25,1.15,1.15,0,0,1-.11-.31,1.61,1.61,0,0,1,0-.31,3.66,3.66,0,0,1,.05-.57,3.11,3.11,0,0,1,.12-.64c.05-.22.11-.45.17-.69l.18-.7a2.51,2.51,0,0,1,.1-.52c0-.18.08-.35.11-.52s.07-.33.1-.49a3.23,3.23,0,0,0,0-.44c0-.76-.28-1.15-.83-1.15a.73.73,0,0,0-.59.23,1.13,1.13,0,0,0-.25.53,1,1,0,0,1-.05.38v2a5.52,5.52,0,0,1-.1.71,4.21,4.21,0,0,1-.14.76c-.05.26-.1.51-.14.78a4.74,4.74,0,0,0-.06.75,2.32,2.32,0,0,0,.4,1.35,1.29,1.29,0,0,0,1.12.59,3.29,3.29,0,0,0,.94-.14,5.65,5.65,0,0,0,.88-.37,6.12,6.12,0,0,0,.79-.54,8.3,8.3,0,0,0,.69-.64q.32-.35.6-.72c.21-.27.42-.55.63-.85s.41-.58.6-.87.36-.54.5-.77c.05.25.09.5.14.76s.11.52.18.77.17.47.27.7a2.53,2.53,0,0,0,.38.58,1.53,1.53,0,0,0,.55.39,1.59,1.59,0,0,0,.74.15,2.58,2.58,0,0,0,.77-.16,6.63,6.63,0,0,0,.94-.43c.34-.2.68-.42,1-.65s.71-.52,1.05-.81.67-.6,1-.92c.12-.12.22-.25.33-.38a4.68,4.68,0,0,0,.18.48c.12.21.25.42.41.65l.55.8a3.24,3.24,0,0,1,.62,1.21,1.77,1.77,0,0,1-.09.56.83.83,0,0,1-.31.43,2.43,2.43,0,0,1-.67.32,5.82,5.82,0,0,1-.93.26l-.44.1-.3.12-.22.12-.21.14a1.12,1.12,0,0,0-.45.92.39.39,0,0,0,.07.23,1.54,1.54,0,0,0,.17.19,1,1,0,0,0,.22.14.46.46,0,0,0,.2.05,1.82,1.82,0,0,0,.33,0,1.4,1.4,0,0,0,.35-.1l.42-.18.54-.26c.32-.16.7-.36,1.12-.6s.88-.5,1.35-.79l1.77-1.1c.59-.37,1.13-.74,1.63-1.1C40.23,17.87,40.42,17.73,40.61,17.58Z"/><path class="cls-1" d="M61.45,8.69a3.76,3.76,0,0,0,.81.11,1,1,0,0,0,.87-.42,1.63,1.63,0,0,0,.31-1,.61.61,0,0,0-.28-.58,2,2,0,0,0-.8-.14,1.44,1.44,0,0,0-.4.18,2.31,2.31,0,0,0-.66.66,1.41,1.41,0,0,0-.28.84C61,8.5,61.17,8.62,61.45,8.69Z"/><path class="cls-1" d="M80.21,17.57l-.14.09-.19.14a7.66,7.66,0,0,1-.66.45,3.1,3.1,0,0,1-.57.3,2.94,2.94,0,0,1-.6.16,5.65,5.65,0,0,1-.71.05,2.12,2.12,0,0,1-1.07-.26,1.93,1.93,0,0,1-.69-.73,3.51,3.51,0,0,1-.38-1.13,8.75,8.75,0,0,1-.12-1.44,1.13,1.13,0,0,1,0-.26v-.8a1,1,0,0,0,0-.25v-.3a.67.67,0,0,0-.07-.31c0-.08-.16-.12-.33-.12a2.16,2.16,0,0,0-.71.12,2.39,2.39,0,0,0-.63.34,4,4,0,0,0-.58.51c-.18.2-.37.42-.55.66s-.32.4-.56.67l-.74.83-.75.83a7.1,7.1,0,0,0-.56.67,2.8,2.8,0,0,1,.06-.63v-.57a5.84,5.84,0,0,1,.1-.72c0-.28.12-.65.22-1.11a4.21,4.21,0,0,1,.14-.67c0-.23.09-.42.12-.6s.06-.33.08-.44a.66.66,0,0,0,0-.21v-.23a1.13,1.13,0,0,0,0-.26.89.89,0,0,0,0-.23.48.48,0,0,0-.3-.35.86.86,0,0,0-.32,0,.92.92,0,0,0-.46.11,1.22,1.22,0,0,0-.33.31,1.27,1.27,0,0,0-.19.45,2.25,2.25,0,0,0-.07.52v1.37c-.14.19-.31.38-.5.6s-.44.48-.71.75-.54.54-.82.79-.55.51-.86.76-.59.48-.88.69a9.41,9.41,0,0,1-.89.56,3.35,3.35,0,0,1-1.54.48c-.44,0-.75-.31-.91-.94a6.76,6.76,0,0,1-.26-1.84,8.39,8.39,0,0,1,.06-1,8.27,8.27,0,0,1,.17-1.27l.12-.77a4,4,0,0,0,.06-.69c0-.31-.08-.46-.24-.46a1.38,1.38,0,0,0-.87.33,1.42,1.42,0,0,0-.53.74v.11c-.5.51-1,1-1.48,1.53A16,16,0,0,1,57,16.41a6.76,6.76,0,0,1-.7.49,1.28,1.28,0,0,1-.61.18.59.59,0,0,1-.45-.26A2.22,2.22,0,0,1,55,16.2a5.32,5.32,0,0,1-.18-.79,4.52,4.52,0,0,1-.06-.74,5.14,5.14,0,0,1,.08-.88,2.34,2.34,0,0,1,.17-.68c.06-.2.11-.38.16-.53a1.2,1.2,0,0,0,.08-.42.28.28,0,0,0-.09-.19,2.09,2.09,0,0,0-.22-.2l-.25-.21a.38.38,0,0,1-.15-.18l-.13-.24a1.76,1.76,0,0,0-.14-.23l-.19-.16a.63.63,0,0,0-.27-.06,4.19,4.19,0,0,0-1.6.32,4.54,4.54,0,0,0-1.49,1,8.83,8.83,0,0,0-1.18,1.41,5.29,5.29,0,0,0-.32.5l-.24.24-.65.66c-.23.23-.51.5-.86.82l-1,.87-.93.72c-.29.2-.54.37-.74.49a1.16,1.16,0,0,1-.44.19h-.1L44,17.38c-.12-.22-.27-.47-.44-.75s-.33-.53-.46-.77-.25-.46-.35-.67a2.81,2.81,0,0,1-.29-1.1l.26-.24c.1-.09.23-.21.38-.33l.41-.38a3.26,3.26,0,0,0,.31-.33A1.12,1.12,0,0,0,44,12.1c0-.62-.26-.93-.79-.93a.94.94,0,0,0-.51.17,2.59,2.59,0,0,0-.56.48,4.89,4.89,0,0,0-.52.68,3.15,3.15,0,0,0-.35.77,3.94,3.94,0,0,0-.22,1.27,2.76,2.76,0,0,0,.34,1.32c.11.2.25.43.41.69s.34.54.55.84A3.23,3.23,0,0,1,43,18.6a1.14,1.14,0,0,1-.45.94,6.25,6.25,0,0,1-1.36.7,6.11,6.11,0,0,0-1.35.68,1.11,1.11,0,0,0-.44.92c0,.14.1.25.31.33a1.56,1.56,0,0,0,.52.11A3.5,3.5,0,0,0,42,21.53c.38-.26.77-.54,1.16-.85l1.23-1,.64-.52.76-.62.78-.67.7-.64.6-.59a1.8,1.8,0,0,0-.08.21,5.21,5.21,0,0,0-.26,1.52,1.83,1.83,0,0,0,.15.73,1.46,1.46,0,0,0,.39.53,1.81,1.81,0,0,0,1.22.44,1.2,1.2,0,0,0,.48-.17c.21-.12.44-.26.7-.44a8.32,8.32,0,0,0,.76-.6,6.86,6.86,0,0,0,.67-.65l.22-.27c.09-.12.19-.25.31-.39l.36-.45c.12-.15.23-.29.34-.41a2.61,2.61,0,0,1,.27-.31c.08-.07.13-.11.15-.11s.07,0,.1.1a1,1,0,0,1,.08.25.54.54,0,0,0,.08.33,2.81,2.81,0,0,0,.08.31,1.77,1.77,0,0,0,.23.48,1.9,1.9,0,0,0,.34.41,1.69,1.69,0,0,0,.41.29,1,1,0,0,0,.45.11,2.68,2.68,0,0,0,1.17-.34,6.06,6.06,0,0,0,1.32-.93c.42-.37.83-.77,1.24-1.2a12.12,12.12,0,0,0,.9-1c0,.45-.06.8-.06,1a10.83,10.83,0,0,0,.21,2.13A4.26,4.26,0,0,0,60.93,20a2.11,2.11,0,0,0,1.7.73,4,4,0,0,0,2.25-.94,14.45,14.45,0,0,0,1.2-1c.37-.33.72-.68,1.07-1a9.76,9.76,0,0,0,.83-.93c.27-.31.49-.59.69-.86v-.06a7.82,7.82,0,0,1-.12,1c-.07.43-.14.8-.2,1.12a.91.91,0,0,1-.06.38c-.06.14,0,.29-.07.44s0,.29,0,.43v.38a.46.46,0,0,0,.06.23.91.91,0,0,0,.18.21,1,1,0,0,0,.28.16,1.49,1.49,0,0,0,.36.05,1,1,0,0,0,.33-.05.82.82,0,0,0,.25-.2c.09-.12.17-.24.25-.37s.21-.35.36-.57.22-.31.39-.53.38-.48.61-.75L72,17l.72-.81c.23-.25.44-.46.63-.65a2.86,2.86,0,0,1,.42-.36A9.05,9.05,0,0,0,74,17.36a4.56,4.56,0,0,0,.65,1.54,2.57,2.57,0,0,0,1,.88,3.36,3.36,0,0,0,1.43.29,4.59,4.59,0,0,0,1.43-.22,3.75,3.75,0,0,0,1-.55,2.66,2.66,0,0,0,.63-.71,1.44,1.44,0,0,0,.22-.69l-.09-.37Zm-26.46-5a.72.72,0,0,1-.06.34l-.06.37a1.38,1.38,0,0,1-.07.32,4,4,0,0,1-.37,1,9.34,9.34,0,0,1-.65,1.1q-.37.56-.81,1.08a9.58,9.58,0,0,1-.86.94,6.18,6.18,0,0,1-.78.66,1.26,1.26,0,0,1-.58.25.72.72,0,0,1-.42-.15.49.49,0,0,1-.2-.42,3.8,3.8,0,0,1,.11-.89,7.58,7.58,0,0,1,.28-.8,6.24,6.24,0,0,1,.35-.68L50,15.1a16.52,16.52,0,0,1,1-1.47,7.67,7.67,0,0,1,.89-1,3.29,3.29,0,0,1,.81-.57,2,2,0,0,1,.71-.22h0a.22.22,0,0,1,.17.07.47.47,0,0,1,.13.15.38.38,0,0,1,.08.17.17.17,0,0,1,0,.1s0,.14,0,.25Z"/><path class="cls-1" d="M100.37,5.8V5.45a.4.4,0,0,0-.26-.39,1.18,1.18,0,0,0-.55-.14.63.63,0,0,0-.42.16,3.5,3.5,0,0,0-.37.49l-.49.68c-.15.22-.31.43-.47.64l-.51.68-.63.83-.6.79-.44.56-.45.56-.65.79-.1.11-.22.25a2.91,2.91,0,0,1-.3.31,1.07,1.07,0,0,1-.47-.14,2.79,2.79,0,0,1-.54-.42c-.2-.19-.42-.43-.66-.71s-.51-.62-.8-1l-.8-1c-.23-.28-.44-.52-.62-.71a2.92,2.92,0,0,0-.5-.43.87.87,0,0,0-.42-.14,1.9,1.9,0,0,0-.68.27c-.32.17-.49.32-.49.43a.72.72,0,0,0,.26.44l.31.32c.11.13.25.27.41.44l.41.43.28.33.17.21.46.56.55.66c.17.2.32.38.46.53a10,10,0,0,0,.85.87,4.6,4.6,0,0,0,.88.64,1.7,1.7,0,0,1,.17.73c0,.42-.06,1.24-.19,2.46a17.86,17.86,0,0,1-.24,1.91,14.61,14.61,0,0,0-.16,1.74.91.91,0,0,0,.26.58.71.71,0,0,0,.53.32,1.18,1.18,0,0,0,.57-.22c.24-.15.38-.28.41-.4s.06-.64.11-1.57c0-.57.06-1,.08-1.4s0-.73,0-1.08a5.81,5.81,0,0,0,0-.59V13.75a8.47,8.47,0,0,0,.69-1l.33-.55c0-.08.1-.16.14-.24l.35-.54.34-.49.36-.48.39-.51,1-.94.57-.7c.49-.6.88-1.1,1.18-1.5A2.66,2.66,0,0,0,100.37,5.8Z"/><path class="cls-1" d="M132.87,11.42c-.35,0-.6.28-.76.83a1.64,1.64,0,0,0-.05.32v2.07a1.71,1.71,0,0,1,0,.32,3,3,0,0,1-1.1,1.5,8.18,8.18,0,0,1-2,1.22,5.1,5.1,0,0,1-1.92.46c-.17,0-.31-.18-.41-.53a2.94,2.94,0,0,1-.14-.88,3.86,3.86,0,0,1,0-.68,4.18,4.18,0,0,1,.16-.7,1.11,1.11,0,0,1,.11-.35c0-.1.06-.18.08-.26s.06-.16.1-.27l.13-.38a.72.72,0,0,1,.09-.2l.2-.33.2-.33.13-.21a.72.72,0,0,0,.08-.32,1.3,1.3,0,0,0-.14-.58.48.48,0,0,0-.42-.3,1.21,1.21,0,0,0-.46.08.83.83,0,0,0-.33.22,1.47,1.47,0,0,0-.24.37,2.85,2.85,0,0,0-.2.51,1.12,1.12,0,0,1-.1.31A8.4,8.4,0,0,1,125,14l-.8.73-.67.58c-.22.2-.48.41-.77.63a7,7,0,0,1-.91.63,6.13,6.13,0,0,1-1,.48,2.86,2.86,0,0,1-1,.19.5.5,0,0,1-.42-.23,2.28,2.28,0,0,1-.29-.61,5.19,5.19,0,0,1-.19-.87c0-.33-.1-.67-.13-1a9.64,9.64,0,0,0-.14-1,5.68,5.68,0,0,0-.27-1,.64.64,0,0,0-.15-.25,1.26,1.26,0,0,0-.24-.22,1.32,1.32,0,0,0-.25-.16.44.44,0,0,0-.19-.07,2.51,2.51,0,0,0-1.19.36,5.55,5.55,0,0,0-1.26,1c-.24.24-.49.53-.76.86s-.54.69-.81,1.07-.56.78-.84,1.2-.54.85-.8,1.28h0a.12.12,0,0,1-.1-.07.22.22,0,0,1-.06-.13,2.44,2.44,0,0,1,.08-.71c.08-.28.08-.58.14-.9l.19-1c.07-.37.12-.63.18-.92s.12-.54.17-.75.09-.38.11-.48c.09-.39.2-.8.33-1.25s.24-.9.35-1.37.21-1,.29-1.45a8.77,8.77,0,0,0,.11-1.45,1.48,1.48,0,0,0-.09-.51,1,1,0,0,0-.23-.35A.93.93,0,0,0,113,6.1a.82.82,0,0,0-.31-.07.43.43,0,0,0-.3.16,1.41,1.41,0,0,0-.27.37,3.48,3.48,0,0,0-.21.48,2.73,2.73,0,0,0-.1.48,1.68,1.68,0,0,1-.07.55c-.07.22,0,.46-.08.72a4.27,4.27,0,0,0-.1.81c0,.28-.07.54-.1.8s-.06.49-.09.71a2,2,0,0,1-.07.54c-.06.48-.14,1-.22,1.49v.2c0,.1-.11.19-.17.3q-.27.48-.63,1.08a10.35,10.35,0,0,1-.85,1.23c-.28.36-.56.69-.82,1a8.16,8.16,0,0,1-.77.78,5.21,5.21,0,0,1-.66.5,1.2,1.2,0,0,1-.52.18.75.75,0,0,1-.65-.3,1.94,1.94,0,0,1-.31-.74,4.79,4.79,0,0,1-.11-1v-1a3.5,3.5,0,0,1,.07-.65,2.14,2.14,0,0,1,.14-.58c0-.18.09-.33.14-.47a1.13,1.13,0,0,0,.06-.36.61.61,0,0,0,0-.19,1.27,1.27,0,0,0-.13-.19l-.12-.16a.33.33,0,0,1-.07-.13,2,2,0,0,0-.31-.88.78.78,0,0,0-.68-.3,3.78,3.78,0,0,0-1.06.16,5.34,5.34,0,0,0-1.76.94,7,7,0,0,0-.63.59,3.82,3.82,0,0,0-.49.65c-.16.27-.33.58-.5.92a11.28,11.28,0,0,0-.46,1.06c-.14.37-.28.75-.4,1.12A9.72,9.72,0,0,0,99.12,18a5.51,5.51,0,0,0-.1.91,1.69,1.69,0,0,0,.57,1.3,1.86,1.86,0,0,0,.53.3,1.71,1.71,0,0,0,.55.09,2.06,2.06,0,0,0,1-.28,5.08,5.08,0,0,0,1-.72,11,11,0,0,0,.93-1c.29-.38.57-.76.82-1.14h.13a8.46,8.46,0,0,0,.23,1,2.73,2.73,0,0,0,.32.72,1.23,1.23,0,0,0,.51.42,1.83,1.83,0,0,0,.8.14,1.73,1.73,0,0,0,.7-.18A4.54,4.54,0,0,0,108,19a8.64,8.64,0,0,0,1-.91,13.48,13.48,0,0,0,1-1.26,9.27,9.27,0,0,0,.62-1l-.07.39c-.09.52-.17,1-.26,1.5a.77.77,0,0,1-.09.4,1.49,1.49,0,0,0-.1.51,1.59,1.59,0,0,1-.08.5,2.16,2.16,0,0,0,0,.36.4.4,0,0,0,.08.28.48.48,0,0,0,.21.19,1.06,1.06,0,0,0,.3.1H111a.54.54,0,0,0,.3-.13,3,3,0,0,0,.39-.32c.14-.12.26-.25.38-.37a2.75,2.75,0,0,0,.22-.26l.59-.88.64-.93.59-.86c.19-.27.35-.5.49-.68a8.35,8.35,0,0,1,.66-.81,7.76,7.76,0,0,1,.63-.65,3.28,3.28,0,0,1,.56-.42.89.89,0,0,1,.42-.15.39.39,0,0,1,.32.13.87.87,0,0,1,.19.37,2.9,2.9,0,0,1,.12.57c0,.22.05.46.08.73a8.07,8.07,0,0,0,.25,1.47,5.76,5.76,0,0,0,.39,1,1.59,1.59,0,0,0,1.52.88,3.81,3.81,0,0,0,1.37-.32,7.2,7.2,0,0,0,1.28-.76,12.72,12.72,0,0,0,1.2-1l1.11-1.08.28-.31.33-.38.09-.12a3.06,3.06,0,0,1-.12.48c0,.17-.1.46-.15.72a8.42,8.42,0,0,0-.14,1.41,2.68,2.68,0,0,0,.46,1.55,1.46,1.46,0,0,0,1.31.68,3.33,3.33,0,0,0,1.24-.31,12.88,12.88,0,0,0,1.34-.67l.68-.4.84-.5,1-.6c0,.23-.06.46-.07.7a3.72,3.72,0,0,1-.06.73l-.06.35a4.73,4.73,0,0,1-.14.7c-.06.29-.15.63-.24.94s-.2.6-.31.9a6.4,6.4,0,0,1-.39.84A4.81,4.81,0,0,1,130,23a1.65,1.65,0,0,1-1.33.72,4.53,4.53,0,0,1-3.11-1.06A4.3,4.3,0,0,1,125,22a.21.21,0,0,0-.17-.1c-.12,0-.23.09-.32.28a1.29,1.29,0,0,0-.14.51,1.64,1.64,0,0,0,.44.72,5,5,0,0,0,1.81,1.16,5.85,5.85,0,0,0,2.15.43,2.89,2.89,0,0,0,2.54-1.41,10.76,10.76,0,0,0,1.39-3.34c.19-.79.36-1.62.49-2.48a25.44,25.44,0,0,0,.26-2.54v-.88a2.09,2.09,0,0,1,0-.56,1.81,1.81,0,0,0,0-.52,3.69,3.69,0,0,0,0-.47v-.35a2.1,2.1,0,0,0-.13-.86C133.41,11.5,133.2,11.42,132.87,11.42Zm-28.64,3.81a12.13,12.13,0,0,1-.77,1.63,5.84,5.84,0,0,1-.56.84,8.8,8.8,0,0,1-.65.72,4,4,0,0,1-.63.52,1,1,0,0,1-.52.19.93.93,0,0,1-.6-.18.54.54,0,0,1-.23-.43,4.38,4.38,0,0,1,.18-1.14,9.85,9.85,0,0,1,.45-1.29,10.43,10.43,0,0,1,.61-1.26,7.2,7.2,0,0,1,.66-1,2.67,2.67,0,0,1,.31-.36,2.37,2.37,0,0,1,.39-.32,1.42,1.42,0,0,1,.44-.23,1.54,1.54,0,0,1,.52-.09.48.48,0,0,1,.23.07,1.24,1.24,0,0,1,.23.17.72.72,0,0,1,.17.22.37.37,0,0,1,.07.2A5.18,5.18,0,0,1,104.23,15.23Z"/><path class="cls-1" d="M146.12,17.57a.37.37,0,0,0-.23-.1.23.23,0,0,0-.15.1,2,2,0,0,1-.17.23,2.13,2.13,0,0,1-1.9.92,1,1,0,0,1-1-.62,3.85,3.85,0,0,1-.3-1,9.25,9.25,0,0,1-.1-1.58,4.74,4.74,0,0,1,.06-.75,4.18,4.18,0,0,1,.14-.8c.05-.26.1-.48.14-.67a2.32,2.32,0,0,0,.06-.38.61.61,0,0,0,0-.27.71.71,0,0,0-.1-.14l-.12-.14a1,1,0,0,1-.09-.24.9.9,0,0,0-.13-.28,2.56,2.56,0,0,0-.2-.26,1.44,1.44,0,0,0-.25-.18.48.48,0,0,0-.23-.07h-.14l-.15.08-.14.07h-.32l-.22-.07-.22-.08h-.18a1.66,1.66,0,0,0-.75.27,5.23,5.23,0,0,0-1,.75,9.46,9.46,0,0,0-1,1.1,7.7,7.7,0,0,0-.85,1.33c-.22.41-.4.79-.55,1.14a9.19,9.19,0,0,0-.36,1,5.9,5.9,0,0,0-.2.83,4.52,4.52,0,0,0-.06.74,1.89,1.89,0,0,0,.12.67,2,2,0,0,0,.32.55,1.47,1.47,0,0,0,.47.39,1.08,1.08,0,0,0,.55.15,2.36,2.36,0,0,0,1-.29,6.55,6.55,0,0,0,1.14-.74,10.77,10.77,0,0,0,1.13-1,9.33,9.33,0,0,0,.94-1.14,12,12,0,0,0,.3,1.18,3.66,3.66,0,0,0,.47,1,2.41,2.41,0,0,0,.68.67,1.68,1.68,0,0,0,.93.24,2.22,2.22,0,0,0,.8-.15,5,5,0,0,0,.72-.39,4.29,4.29,0,0,0,.59-.54,2.67,2.67,0,0,0,.43-.57,1.27,1.27,0,0,0,.18-.37,1,1,0,0,0,.06-.33A.3.3,0,0,0,146.12,17.57Zm-5.05-3.07a6.26,6.26,0,0,1-.31.82,6.21,6.21,0,0,1-.42.81c-.15.26-.3.51-.45.73a6.66,6.66,0,0,1-.53.66c-.22.23-.44.45-.66.65a7.73,7.73,0,0,1-.64.49,1.06,1.06,0,0,1-.45.19.66.66,0,0,1-.61-.26,1.24,1.24,0,0,1-.16-.68,2.37,2.37,0,0,1,.09-.65c.08-.26.17-.51.27-.76s.24-.55.38-.83.3-.56.46-.83l.47-.77c.16-.25.32-.47.46-.66a2.14,2.14,0,0,1,.28-.32,3.47,3.47,0,0,1,.38-.29,2.18,2.18,0,0,1,.43-.22,1.22,1.22,0,0,1,.46-.09.55.55,0,0,1,.46.3,1.73,1.73,0,0,1,.21,1,2.85,2.85,0,0,1-.12.71Z"/></svg>